<?xml version="1.0" encoding="utf-8"?>
<!-- Generator: Adobe Illustrator 13.0.0, SVG Export Plug-In . SVG Version: 6.00 Build 14948)  -->
<!DOCTYPE svg PUBLIC "-//W3C//DTD SVG 1.1//EN" "http://www.w3.org/Graphics/SVG/1.1/DTD/svg11.dtd">
<svg version="1.1" id="Layer_1" xmlns="http://www.w3.org/2000/svg" xmlns:xlink="http://www.w3.org/1999/xlink" x="0px" y="0px"
	 width="580px" height="130px" viewBox="-7.371 -3.275 580 130" enable-background="new -7.371 -3.275 580 130"
	 xml:space="preserve">
<g>
	<g id="Ebene_1">
		<g>
			<polygon fill="#FFFFFF" points="9.822,4 36.243,4 36.243,11.774 28.51,11.774 28.51,117.306 19.165,117.306 19.165,11.774
				9.822,11.774 			"/>
			<path fill="#FFFFFF" d="M60.177,109.581H70.49V35.646h9.021v73.936c0,4.785-4.349,8.175-8.807,8.175H60.177
				c-4.711,0-8.914-3.833-8.914-8.27V35.646h8.914V109.581z"/>
			<path fill="#FFFFFF" d="M254.144,53.704h13.777v64.124h-19.412c-4.151,0-9.264-3.178-9.264-7.998V12.897
				c0-4.071,4.267-8.409,9.06-8.409h10.593c4.698,0,8.962,4.298,8.962,8.314v22.965h-9.285V13.122h-10.55v96.78h10.794V61.551
				h-4.675V53.704z"/>
			<path fill="#FFFFFF" d="M387.354,78.475v38.868h-8.697V42.9c0-3.362,3.343-7.026,7.571-7.026h14.339v7.175h-13.213v27.503h10.877
				v7.957L387.354,78.475z"/>
			<path fill="#FFFFFF" d="M418.206,35.894h9.13v29.65l5.155,5.183l5.046-5.038V35.894h9.02v28.21c0,3.445-8.91,12.521-8.91,12.521
				s9.019,9.07,9.019,12.746v28.137h-8.483V88.213l-5.478-5.539l-5.478,5.467v29.368h-9.021V89.438
				c0-3.452,9.556-12.885,9.556-12.885s-9.556-8.975-9.556-12.59V35.894z"/>
			<path fill="#FFFFFF" d="M118.604,78.658c3.061,0,7.129-3.659,7.129-8.555V43.347c0-3.849-4.39-7.435-9.385-7.435H97.821v81.758
				h8.54V79.26h3.223l9.504,38.266h8.377L118.604,78.658z M116.913,70.665h-10.231V43.834h10.231V70.665z"/>
			<path fill="#FFFFFF" d="M307.57,78.445c3.062,0,7.133-3.666,7.133-8.561V43.131c0-3.85-4.393-7.437-9.385-7.437h-18.526v81.761
				h8.533V79.039h3.226l9.506,38.266h8.376L307.57,78.445z M305.757,70.357h-10.225V43.529h10.225V70.357z"/>
			<path fill="#FFFFFF" d="M171.383,80.584c-0.04-3.663-3.864-5.98-3.864-5.98s3.864-2.501,3.864-5.979V43.667
				c0-4.712-4.146-7.775-8.375-7.775h-19.494v81.616h19.494c3.947,0,8.375-2.467,8.375-7.775
				C171.383,109.733,171.426,84.245,171.383,80.584z M162.604,109.511h-10.229V79.09h10.229V109.511z M162.604,70.645h-10.229
				V43.816h10.229V70.645z"/>
			<path fill="#FFFFFF" d="M208.717,35.288h-5.155h-4.995c-5.116,0-8.84,4.374-8.84,7.7v66.282c0,4.285,4.772,8.171,8.801,8.171
				h11.035c4.309,0,8.619-4.45,8.619-7.997v-66.68C218.182,39.776,214.112,35.288,208.717,35.288z M209.039,109.016h-9.881V43.363
				h9.881V109.016z"/>
			<path fill="#FFFFFF" d="M352.013,35.874h-11.271c-5.078,0-8.058,4.184-8.058,7.474v73.996h8.537V78.475h10.793v38.868h8.538
				V43.794C360.552,38.913,357.174,35.874,352.013,35.874z M351.768,70.404h-10.223V44.097h10.223V70.404z"/>
		</g>
	</g>
	<g>
		<g>
			<path fill="#FFFFFF" d="M521.076,17.169c-28.644,0-51.863,23.22-51.863,51.863c0,28.644,23.22,51.863,51.863,51.863
				c28.643,0,51.862-23.22,51.862-51.863C572.938,40.39,549.719,17.169,521.076,17.169z M518.482,56.067h-5.187v-2.595l-2.593-2.592
				h-20.746v38.896h20.746l2.593-2.592v-2.594h5.187v5.186l-5.187,5.188h-25.931l-2.594-2.594V48.287l2.594-2.594h25.931
				l5.187,5.188V56.067z M557.379,89.776l-5.185,5.188h-28.526v-5.188h2.595V50.88h-2.595v-5.188h28.526l5.185,5.188V89.776z
				 M531.448,89.776h20.746V50.88h-20.746V89.776z"/>
		</g>
	</g>
</g>
</svg>
